<svg height="511pt" viewBox="0 0 511 511.99977" width="511pt" xmlns="http://www.w3.org/2000/svg"><g fill="#ccccd1"><path d="m65.933594 287.457031c-.726563-4.261719-4.773438-7.136719-9.027344-6.402343-4.257812.726562-7.125 4.765624-6.402344 9.027343 7.507813 44.140625 28.734375 83.769531 61.382813 114.597657 1.605469 1.515624 3.683593 2.222656 5.730469 2.128906 1.957031-.089844 3.882812-.910156 5.332031-2.445313 2.964843-3.140625 2.824219-8.09375-.316407-11.0625-30.160156-28.476562-49.769531-65.078125-56.699218-105.84375zm0 0"/><path d="m55.5 265.460938c.085938 0 .175781-.003907.261719-.007813 4.199219-.191406 7.515625-3.679687 7.464843-7.910156-.503906-41.375 12.203126-80.902344 36.746094-114.316407 2.558594-3.480468 1.808594-8.378906-1.671875-10.9375-3.484375-2.558593-8.378906-1.808593-10.941406 1.675782-26.570313 36.171875-40.324219 78.96875-39.78125 123.769531.054687 4.320313 3.597656 7.777344 7.921875 7.726563zm0 0"/><path d="m234.046875 58.691406c-.578125-4.28125-4.515625-7.273437-8.800781-6.707031-44.414063 5.996094-84.75 25.84375-116.652344 57.386719-3.070312 3.039062-3.101562 7.992187-.0625 11.066406 1.621094 1.636719 3.789062 2.410156 5.921875 2.3125 1.867187-.082031 3.710937-.832031 5.144531-2.25 29.464844-29.136719 66.722656-47.46875 107.742188-53.007812 4.28125-.578126 7.285156-4.519532 6.707031-8.800782zm0 0"/><path d="m403.84375 116.257812c-2.929688-3.175781-7.878906-3.371093-11.054688-.441406-3.175781 2.929688-3.375 7.878906-.441406 11.054688 47.507813 51.464844 48.234375 107.441406 49.6875 111.421875-.714844 4.140625 8.554688 59.519531-28.847656 118.542969-2.3125 3.648437-1.226562 8.484374 2.421875 10.796874 1.40625.890626 2.992187 1.277344 4.539063 1.207032 2.464843-.113282 4.835937-1.386719 6.257812-3.628906 49.003906-77.335938 41.277344-179.804688-22.5625-248.953126zm0 0"/><path d="m395.167969 380.855469c-27.445313 31.140625-63.347657 52.003906-103.824219 60.328125-4.234375.871094-6.960938 5.007812-6.089844 9.242187.785156 3.820313 4.234375 6.414063 8.011719 6.242188.40625-.019531.816406-.070313 1.230469-.15625 43.832031-9.015625 82.703125-31.597657 112.410156-65.308594 2.859375-3.242187 2.546875-8.1875-.695312-11.046875-3.242188-2.851562-8.1875-2.542969-11.042969.699219zm0 0"/><path d="m375.503906 108.152344c2.191406-.097656 4.328125-1.113282 5.792969-2.96875 2.675781-3.394532 2.09375-8.3125-1.296875-10.988282-35.273438-27.820312-77.570312-43.046874-122.328125-44.035156-4.324219-.09375-7.898437 3.328125-7.996094 7.648438-.09375 4.320312 3.332031 7.898437 7.652344 7.996094 41.332031.914062 80.398437 14.980468 112.980469 40.675781 1.535156 1.210937 3.382812 1.753906 5.195312 1.671875zm0 0"/><path d="m261.546875 444.90625-.152344.007812c-41.324219 1.882813-81.21875-9.453124-115.375-32.777343-3.570312-2.433594-8.4375-1.519531-10.875 2.050781-2.4375 3.566406-1.519531 8.4375 2.050781 10.871094 36.976563 25.253906 80.171876 37.527344 124.910157 35.488281l.152343-.007813c4.316407-.195312 7.65625-3.855468 7.460938-8.171874-.199219-4.316407-3.855469-7.65625-8.171875-7.460938zm0 0"/></g><path d="m291.84375 171.605469c-1.367188 1.316406-3.222656 2.191406-5.488281 2.253906-.300781.011719-.601563.023437-.894531.023437-47.582032.894532-87.476563-37.285156-88.582032-84.859374-1.167968-50.324219 40.414063-90.722657 89.550782-88.9687505 2.210937.0625005 4.039062.9062505 5.382812 2.2031245 3.507812 3.335938 3.726562 9.679688-1.042969 12.957032-22.824219 15.667968-37.808593 41.957031-37.808593 71.742187 0 29.773438 14.972656 56.066407 37.800781 71.734375 4.753906 3.265625 4.558593 9.558594 1.082031 12.914063zm0 0" fill="#f29500"/><path d="m512.097656 255.433594c0 43.304687-31.652344 79.203125-73.070312 85.835937-4.519532.730469-9.148438 1.109375-13.867188 1.109375-48.019531 0-86.941406-38.925781-86.941406-86.945312 0-48.023438 38.921875-86.945313 86.941406-86.945313 4.71875 0 9.347656.375 13.867188 1.105469 41.417968 6.636719 73.070312 42.535156 73.070312 85.839844zm0 0" fill="#f29500"/><path d="m319.972656 484.082031c3.460938 3.746094 2.753906 9.640625-1.441406 12.539063-10.410156 7.199218-22.480469 12.1875-35.511719 14.28125-4.464843.722656-9.046875 1.085937-13.710937 1.097656-47.582032.074219-86.054688-37.472656-87.066406-85.046875-1.042969-48.886719 38.277343-88.851563 86.921874-88.851563 4.726563 0 9.367188.375 13.886719 1.105469 13.09375 2.097657 25.203125 7.125 35.648438 14.386719 4.121093 2.867188 4.683593 8.742188 1.273437 12.421875-14.347656 15.503906-23.121094 36.246094-23.121094 59.027344 0 22.796875 8.773438 43.535156 23.121094 59.039062zm0 0" fill="#f29500"/><path d="m116.214844 337.496094c-4.78125 1.679687-9.746094 2.941406-14.867188 3.773437-5.394531.867188-10.945312 1.234375-16.621094 1.066407-44.929687-1.367188-81.769531-37.359376-84.105468-82.261719-2.609375-50.128907 37.273437-91.585938 86.828125-91.585938 4.726562 0 9.359375.375 13.886719 1.105469 5.144531.824219 10.128906 2.097656 14.929687 3.789062 6.175781 2.167969 7.5625 10.242188 2.472656 14.34375-19.757812 15.941407-32.402343 40.351563-32.402343 67.707032 0 27.351562 12.644531 51.777344 32.402343 67.707031 5.113281 4.121094 3.671875 12.183594-2.523437 14.355469zm0 0" fill="#f29500"/><path d="m291.84375 171.605469c-37.617188-8.835938-66.289062-42.355469-67.226562-82.582031-.980469-42.136719 28.03125-77.679688 67.195312-86.765626 3.507812 3.335938 3.726562 9.679688-1.042969 12.957032-22.824219 15.667968-37.808593 41.957031-37.808593 71.742187 0 29.773438 14.972656 56.066407 37.800781 71.734375 4.753906 3.265625 4.558593 9.558594 1.082031 12.914063zm0 0" fill="#ffb52d"/><path d="m512.097656 255.433594c0 43.304687-31.652344 79.203125-73.070312 85.835937-41.429688-6.632812-73.070313-42.542969-73.070313-85.835937 0-43.296875 31.640625-79.203125 73.070313-85.839844 41.417968 6.636719 73.070312 42.535156 73.070312 85.839844zm0 0" fill="#ffb52d"/><path d="m319.972656 484.082031c3.460938 3.746094 2.753906 9.640625-1.441406 12.539063-10.410156 7.199218-22.480469 12.1875-35.511719 14.28125-40.894531-6.476563-72.121093-41.15625-73.039062-83.949219-.9375-44.148437 31.035156-81.019531 73.070312-87.746094 13.09375 2.097657 25.203125 7.125 35.648438 14.386719 4.121093 2.867188 4.683593 8.742188 1.273437 12.421875-14.347656 15.503906-23.121094 36.246094-23.121094 59.027344 0 22.796875 8.773438 43.535156 23.121094 59.039062zm0 0" fill="#ffb52d"/><path d="m116.214844 337.496094c-4.78125 1.679687-9.746094 2.941406-14.867188 3.773437-39.757812-6.402343-70.847656-40.058593-72.988281-81.195312-2.34375-45.359375 30.066406-83.617188 72.976563-90.480469 5.144531.824219 10.128906 2.097656 14.929687 3.789062 6.175781 2.167969 7.5625 10.242188 2.472656 14.34375-19.757812 15.941407-32.402343 40.351563-32.402343 67.707032 0 27.351562 12.644531 51.777344 32.402343 67.707031 5.113281 4.121094 3.671875 12.183594-2.523437 14.355469zm0 0" fill="#ffb52d"/></svg>